# xmcd CD database file
#
# Track frame offsets:
#	150
#	17394
#	35020
#	55915
#	79947
#	96861
#	116419
#	150875
#	170197
#	193431
#	213792
#	227077
#	244499
#
# Disc length: 3510 seconds
#
# Revision: 0
# Processed by: cddbd v1.5.2PL0 Copyright (c) Steve Scherf et al.
# Submitted via: CDex 1.51
#
DISCID=aa0db40d
DTITLE=Ben Morris - The Other Side of Broken
DYEAR=2007
DGENRE=Country
TTITLE0=Thundercloud
TTITLE1=Count On Me
TTITLE2=The Ties
TTITLE3=Left Me For Dead
TTITLE4=If I Could Be With You
TTITLE5=Horseshoes And Hand Grenades
TTITLE6=When You Get Old
TTITLE7=1 Year 23 Days
TTITLE8=Green Light
TTITLE9=Fortune Cookie
TTITLE10=Hit Man
TTITLE11=No Saving Grace
TTITLE12=Lupe's Daughter
EXTD=YEAR: 2007
EXTT0=
EXTT1=
EXTT2=
EXTT3=
EXTT4=
EXTT5=
EXTT6=
EXTT7=
EXTT8=
EXTT9=
EXTT10=
EXTT11=
EXTT12=
PLAYORDER=
